<svg width="100" height="100" viewBox="0 0 100 100" fill="none" xmlns="http://www.w3.org/2000/svg">
<path d="M50 0C48.0326 6.34782 44.1304 11.6957 38.2609 16.087C32.3913 20.4783 24.5217 23.913 14.6957 26.3043C19.8261 31.8261 22.8261 38.6957 23.6957 46.9565C24.5652 55.2174 23.2174 64.7826 19.6522 75.6522C26.5217 76.5217 32.8696 79.2174 38.6957 83.7391C44.5217 88.2609 49.8261 94.6087 54.5652 100C56.9565 92.1739 58.1739 83.6522 58.2609 74.4348C58.3478 65.2174 57.3913 55.2174 55.3913 44.4348C59.3913 41.3043 63.8261 38.6957 68.6957 36.6087C73.5652 34.5217 78.8696 32.9565 84.6087 31.913C81.8696 25.2174 77.8261 19.4783 72.5217 14.6957C67.2174 9.91304 60.6522 6.08696 52.8261 3.21739C51.7826 2.17391 50.8696 1.08696 50 0Z" fill="#76B899"/>
<path d="M50 0C55.2174 4.13043 59.5652 9.13043 63.0435 15C66.5217 20.8696 69.1304 27.6087 70.8696 35.2174C72.6087 42.8261 73.5217 51.3043 73.6087 60.6522C73.6957 70 72.8261 80.2174 71.0435 91.3043C66.9565 89.1304 62.3478 87.5652 57.1739 86.6087C52 85.6522 46.3043 85.3043 40.0435 85.5652C36.9565 79.1304 35.5217 72.1739 35.7391 64.7826C35.9565 57.3913 37.8261 49.5217 41.3913 41.1304C41.7391 32.8696 42.1739 24.3478 42.6957 15.6522C44.1304 10.4348 46.5217 5.65217 50 1.30435L50 0Z" fill="#A274D0"/>
<path d="M50 0C46.3043 5.43478 43.0435 11.3043 40.2174 17.6087C37.3913 23.913 35 30.6522 33.0435 37.8261C31.087 45 29.5652 52.6087 28.4783 60.6522C27.3913 68.6957 26.7391 77.1739 26.5217 86.087C31.5217 81.5217 37.3913 78.4783 44.1304 76.9565C50.8696 75.4348 58.4783 75.4348 66.9565 76.9565C69.3478 69.7826 70.8696 62.1739 71.5217 54.1304C72.1739 46.087 71.9565 37.6087 70.8696 28.6957C69.7826 19.7826 67.8261 10.4348 65 0.521739C60.2174 0.173913 55.2174 0 50 0Z" fill="#C4EA8A"/>
<path d="M50 0C57.3913 3.47826 63.913 8.17391 69.5652 14.087C75.2174 20 80 27.1304 83.913 35.4783C87.8261 43.8261 90.8696 53.3913 93.0435 64.1739C95.2174 75 96.5217 87.0435 96.9565 100.304C91.1304 94.1304 84.087 89.2609 75.8261 85.6957C67.5652 82.1304 58.087 79.8696 47.3913 78.913C41.7391 73.0435 37.8261 66.087 35.6522 58.0435C33.4783 50 33.0435 40.8696 34.3478 30.6522C35.6522 20.4348 38.6957 9.13043 43.4783 -3.26087C45.6522 -1.08696 47.8261 -0.347826 50 0Z" fill="#FFCC4D"/>
<path d="M50 0C42.8261 3.26087 36.3043 7.73913 30.4348 13.4348C24.5652 19.1304 19.3478 26.0435 14.7826 34.1739C10.2174 42.3043 6.30435 51.6522 3.04348 62.2174C-0.217391 72.8261 -2.82609 84.6522 -4.78261 97.6957C2.3913 94.7826 9.78261 92.8261 17.3913 91.8261C25 90.7826 32.8261 90.6957 40.8696 91.5652C45.6522 84.3478 49.3478 76.5217 51.9565 68.087C54.5652 59.6522 56.087 50.6087 56.5217 40.9565C56.9565 31.3043 56.3043 21.0435 54.5652 10.1739C53.2609 6.78261 51.7391 3.47826 50 0.26087L50 0Z" fill="#E85763"/>
</svg>